<svg xmlns="http://www.w3.org/2000/svg" viewBox="0 0 92.05 89.49"><defs><style>.a{fill:#599190;}</style></defs><title>logo-graphic-rgb</title><path class="a" d="M64.93,3.17C71,6.68,73.7,11.5,76.15,16c3.74,1.16,5,3.87,7.16,6.23C92.73,32.6,92.5,41.37,87.56,55.6L84,61.05l-1.93,8.86c-2.73,8.39-10.82,15-16.26,17.4-7.71,3.37-16.19,2.53-25.22-.53l-7.24-4.85C26.5,79.15,18.57,78.24,12,72.25-2.84,58.58-1,36.16,15.45,18.32c6.14-6.66,8-11.84,16.25-14.91C41.12-.1,50.87,5.44,64,9.74l9.1,4.13c-2.32-3.64-5.8-5.71-9.35-9.25Zm6.51,12.26-4.09-1.62c5.57,4,8.28,10.64,10.67,15C78.44,24.54,76.6,18.32,71.44,15.43Zm6.16,4.23c1,3.57,1,8.92,2.61,12.17,2.37,4.9,6.22,8.24,6.85,13.52q-.15,3.65-.3,7.3C91.8,39.13,89.09,29.26,77.6,19.66ZM48.35,5.08l.38.58Zm-1-.2C33.69,6.29,28.9,1.74,17.82,16.11l.27.15.31-.53c6.33-3,11.66-7.41,18.16-9.55,2.69-.89,10.82-1.29,10.82-1.29ZM59.9,12.39,55,10.31c-9.51-2-26.78,1.07-33,12.13l.27.15.31-.53L38.8,15.28c8.12-2.39,17.83,1.89,26.49,2.68l-.54-.31C64,15.17,62,13.79,59.9,12.4Zm4.83,7.74-9-3a51.51,51.51,0,0,0-27.17,4.05l-7.47,3.56c-6.67,7.59-.15,35.05,3.21,41.34l-.64-3.22.74-.65a2.62,2.62,0,0,1,1,1.3c0,10.43,20.75,12.52,27.53,10.75,5.09-1.33,14.41-2.83,18.8-6.34,13.54-10.82,1.45-40.81-7-47.78Zm7.08,5.12c-.07,2.07,1.92,5.83,3.17,7.51-.47-2.27-1.4-5.66-3.17-7.51Zm3.58,3.11A111.34,111.34,0,0,0,79,45.7,23.93,23.93,0,0,0,75.4,28.37Zm6.21,10.31L84,52.49c1.11-4.85-.36-9.74-2.37-13.81Zm-51-28.44L27.53,12.4l.69,0c1.19-.92,2.43-1.33,2.37-2.2Zm49.89,31c0,7.29-.14,15.33-3.62,22.84l.27.15c7.12-7.6,6.78-15.09,3.35-23ZM25.28,15c-5.82,6.29-9.55,4.84-12.35,15l.27.15.31-.53c2.22-1.42,3.09-5.28,5.21-7.7l6.09-6.13.43-.11.58-.38ZM85.22,52.84l-.31.53Zm-.2,1a3.46,3.46,0,0,0-.28,2.33L85,53.79Zm1,1.3.07,1.11ZM18.74,17l-.31.53Zm-.74.65-2.67,2.74.27.15,2.68-2.74Zm2.84,3.75-3.18,4.23.27.15c1-1,2.73-2.63,2.91-4.38ZM82.84,60l-2.18,3.74,2.14-3ZM13.89,21l-.51,1.49Zm4.69,5.53c-4.87,5.3-4.53,12.55-3.06,18.18l1.09-11.12ZM82.15,64.26c-3.33,5.8-7.05,7.1-10.78,9.85L65,80.77c-8.77,6.35-16.55,2-26.94,2.4,16,6.06,27.21,6.78,38-6C79.08,73.58,82.06,68.35,82.15,64.26ZM11.83,25.14c-2.24,3.12-4.39,6.64-4.22,9.69ZM78.1,64.43l-2.61,3.85Zm-66-36.65c-2,3.17-3.66,6.81-3.36,9.47C10.05,33.87,12.07,31.36,12.09,27.78ZM79.25,66.15l-.47.8ZM14.43,30.55a4.92,4.92,0,0,0-.91,5.88ZM78.35,67.07l-4,3.77.27.15.31-.53c1.17-.5,3.18-2.27,3.41-3.39Zm-5.1,1.35-7.87,5.47.7,0c2-1.43,6.6-2.47,7.17-5.51ZM11.55,34.24C5.14,44.83,11.5,53.12,16,59.91c-.36-5.69-2.26-10.58-3.64-16C13.11,42.15,12.24,36.61,11.55,34.24Zm1.53,2.3.38.58ZM73.35,71.33l-.31.53Zm-67-38C.28,47.48,3.45,58.27,12,68.65c1.64,2,5.91,6.43,9.63,6.92l-3-4.18-7.58-6.11C3,55.11,6.41,45.61,6.3,33.38ZM7.46,35.1l-.31.53ZM17,40.92,17.08,42Zm-.09,1.38.14,2.22ZM65.77,72c-6.32,3.35-28,7.67-34.7,1.53,1.72,7.07,23.27,4.08,27.61,2.61ZM16.91,44.78a12.65,12.65,0,0,0,1.93,9.64ZM66.15,75c-4.57,3.81-10.79,3.36-15.94,5.13C53.84,80.1,64.86,79,66.15,75Zm-59.56-28C5,55.92,11.14,63.31,18.24,69,16.53,61,8.56,54.5,6.59,47.06ZM63.5,79.58c-4.27,2.13-8.68,1.79-13,3.23,2.18.2,13.45-1,13-3.23ZM17.43,59.31c.19,2.14.71,2.53,2.11,4.41Zm4.09,8.39,4.42,5.37a15.15,15.15,0,0,0-4.42-5.37Zm-1.74,1.14a7.18,7.18,0,0,0,2.19,3Zm5.35,6.26-1.93-.39.38.58c.85,2,3,2.45,5.24,3.35Z"/><path class="a" d="M66.06,3.16C72.15,6.67,74.83,11.5,77.28,16c3.74,1.16,5,3.87,7.16,6.23,9.43,10.39,9.19,19.16,4.25,33.39L85.15,61l-1.93,8.86c-2.73,8.39-10.82,15-16.26,17.4-7.71,3.37-16.19,2.53-25.22-.53l-7.24-4.85c-6.86-2.79-14.79-3.69-21.32-9.69C-1.71,58.57.15,36.14,16.58,18.3c6.14-6.66,8-11.84,16.25-14.91C42.25-.12,52,5.42,65.1,9.73l9.1,4.13c-2.32-3.64-5.8-5.71-9.35-9.25Zm6.51,12.26L68.48,13.8c5.57,4,8.28,10.64,10.67,15,.42-4.26-1.43-10.48-6.58-13.37Zm6.16,4.23c1,3.57,1,8.92,2.62,12.17,2.37,4.9,6.22,8.24,6.85,13.52l-.3,7.3c5-13.53,2.32-23.39-9.17-33ZM49.47,5.07l.38.58Zm-1-.19C34.82,6.28,30,1.74,18.95,16.11l.27.15.31-.53c6.33-3,11.66-7.41,18.16-9.55C40.38,5.28,48.51,4.88,48.51,4.88ZM61,12.39,56.14,10.3c-9.51-2-26.78,1.07-33,12.13l.27.15.31-.53,16.18-6.77c8.12-2.39,17.83,1.89,26.49,2.68l-.54-.31C65.1,15.16,63.13,13.78,61,12.39Zm4.83,7.74-9-3a51.51,51.51,0,0,0-27.18,4l-7.47,3.56C15.52,32.3,22,59.77,25.4,66.06l-.64-3.21.74-.65a2.62,2.62,0,0,1,1,1.3c0,10.43,20.75,12.52,27.53,10.75,5.09-1.33,14.41-2.83,18.8-6.34,13.54-10.82,1.45-40.81-7-47.78ZM73,25.25c-.07,2.07,1.92,5.83,3.17,7.51-.47-2.28-1.4-5.67-3.17-7.52Zm3.58,3.11A111.35,111.35,0,0,0,80.08,45.7a23.93,23.93,0,0,0-3.55-17.34Zm6.21,10.31,2.37,13.81c1.11-4.86-.36-9.75-2.37-13.81Zm-51-28.44L28.66,12.4l.69,0c1.18-.93,2.43-1.34,2.37-2.21Zm49.89,31c0,7.29-.14,15.33-3.62,22.84l.27.15c7.11-7.6,6.78-15.09,3.35-23ZM26.41,15c-5.82,6.29-9.55,4.84-12.35,15l.27.15.31-.53c2.22-1.42,3.09-5.28,5.21-7.7l6.09-6.13.43-.11.58-.38Zm59.94,37.8-.31.53Zm-.2,1a3.46,3.46,0,0,0-.28,2.33l.28-2.33Zm1,1.3.07,1.11ZM19.87,17l-.31.53Zm-.74.65-2.68,2.74.27.15,2.68-2.74ZM22,21.39l-3.18,4.23.27.15c1-1,2.73-2.63,2.91-4.38ZM84,60l-2.18,3.74,2.14-3q0-.34,0-.68ZM15,21l-.51,1.49Zm4.69,5.53c-4.87,5.3-4.53,12.55-3.06,18.19l1.09-11.12ZM83.28,64.25c-3.33,5.8-7.05,7.1-10.78,9.85l-6.4,6.66c-8.77,6.35-16.55,2-26.94,2.41,16,6.06,27.21,6.78,38-6,3-3.56,6-8.8,6.09-12.89ZM13,25.14c-2.24,3.12-4.39,6.64-4.22,9.69ZM79.22,64.42l-2.61,3.85Zm-66-36.65c-2,3.17-3.66,6.81-3.36,9.47C11.18,33.87,13.2,31.35,13.21,27.78ZM80.38,66.15l-.47.8ZM15.56,30.54a4.92,4.92,0,0,0-.91,5.88ZM79.48,67.06l-4,3.77.27.15.31-.53c1.17-.5,3.18-2.27,3.42-3.39Zm-5.1,1.35-7.87,5.47.69,0c2.05-1.43,6.6-2.47,7.17-5.51ZM12.68,34.23c-6.41,10.58-.05,18.88,4.44,25.67-.36-5.69-2.26-10.58-3.64-16C14.23,42.14,13.37,36.6,12.68,34.23Zm1.54,2.3.38.58ZM74.48,71.32l-.31.53.31-.53Zm-67-37.95c-6,14.1-2.85,24.89,5.67,35.27,1.64,2,5.91,6.43,9.63,6.92l-3-4.18-7.58-6.11C4.11,55.1,7.54,45.6,7.43,33.37Zm1.15,1.73-.31.53Zm9.55,5.81L18.21,42Zm-.08,1.38.14,2.22ZM66.91,72c-6.32,3.35-28,7.67-34.7,1.53,1.72,7.07,23.27,4.08,27.61,2.61ZM18,44.77A12.65,12.65,0,0,0,20,54.41ZM67.27,75c-4.57,3.81-10.79,3.36-15.94,5.13C55,80.09,66,79,67.28,75Zm-59.56-28C6.15,55.91,12.26,63.3,19.36,69c-1.7-8-9.67-14.52-11.64-21.95ZM64.63,79.57c-4.27,2.13-8.68,1.79-13,3.23,2.19.2,13.46-1,13-3.23ZM18.56,59.3c.19,2.14.71,2.53,2.11,4.41Zm4.09,8.39,4.42,5.37a15.16,15.16,0,0,0-4.42-5.37Zm-1.74,1.14a7.18,7.18,0,0,0,2.19,3Zm5.35,6.26-1.93-.39.38.58c.85,2,3,2.45,5.24,3.35Z"/><path class="a" d="M2.8,25.82c3.53-6.05,8.4-8.71,12.91-11.15,1.17-3.71,3.9-5,6.27-7.11C32.44-1.79,41.27-1.56,55.6,3.34l5.49,3.51L70,8.78c8.45,2.71,15.13,10.74,17.52,16.15C90.93,32.58,90.09,41,87,50l-4.88,7.19C79.31,64,78.4,71.85,72.36,78.33,58.6,93.11,36,91.26,18.05,74.94,11.34,68.85,6.13,67,3,58.8c-3.54-9.35,2-19,6.38-32l4.16-9C9.91,20,7.83,23.49,4.25,27Zm12.35-6.47-1.64,4.06c4.07-5.53,10.72-8.22,15.1-10.6-4.29-.42-10.55,1.41-13.47,6.53Zm4.26-6.12c3.6-1,9-1,12.25-2.59C36.6,8.29,40,4.46,45.28,3.84l7.35.3C39-.86,29.08,1.82,19.41,13.23Zm-14.68,29,.58-.38Zm-.2,1c1.41,13.59-3.17,18.35,11.3,29.36l.15-.27L15.45,72C12.38,65.73,8,60.44,5.83,54,4.94,51.31,4.53,43.23,4.53,43.23ZM12.09,30.8,10,35.66c-2,9.44,1.08,26.59,12.21,32.74l.15-.27-.54-.31L15,51.76c-2.41-8.06,1.9-17.7,2.7-26.3l-.31.54c-2.5.77-3.89,2.72-5.29,4.81Zm7.8-4.8-3,9a50.5,50.5,0,0,0,4.08,27l3.59,7.42c7.64,6.63,35.3.15,41.63-3.19l-3.24.64-.65-.73a2.63,2.63,0,0,1,1.31-1c10.5,0,12.61-20.61,10.83-27.34C73,32.66,71.54,23.41,68,19,57.11,5.6,26.9,17.61,19.89,26ZM25,19c2.08.07,5.87-1.9,7.56-3.15C30.31,16.28,26.9,17.21,25,19Zm3.13-3.55a113.44,113.44,0,0,0,17.46-3.53A24.38,24.38,0,0,0,28.18,15.42ZM38.56,9.25,52.47,6.89c-4.89-1.1-9.82.36-13.91,2.36ZM9.92,59.91l2.18,3,0-.69C11.21,61.08,10.79,59.84,9.92,59.91ZM41.13,10.37c7.34,0,15.44.14,23,3.59l.15-.27C56.64,6.63,49.11,7,41.13,10.37ZM14.75,65.18c6.34,5.78,4.87,9.48,15.11,12.26l.15-.27-.54-.31C28,74.66,24.16,73.8,21.72,71.7l-6.17-6-.11-.42-.38-.58ZM52.82,5.67l.54.31Zm1,.2a3.54,3.54,0,0,0,2.35.28Zm1.31-1,1.12-.07ZM16.72,71.67l.54.31Zm.65.73,2.76,2.66.15-.27-2.76-2.66Zm3.79-2.82,4.26,3.16.15-.27C24.57,71.45,22.92,69.77,21.16,69.58ZM60,8l3.76,2.16L60.74,8.08ZM20.74,76.49l1.5.51Zm5.57-4.66c5.34,4.83,12.64,4.5,18.31,3l-11.2-1.09Zm38-63.13c5.85,3.31,7.15,7,9.92,10.71L81,25.77c6.4,8.71,2,16.43,2.42,26.75,6.11-15.89,6.82-27-6.07-37.77-3.6-3-8.87-5.94-13-6ZM24.93,78.54c3.14,2.23,6.69,4.36,9.76,4.19Zm39.56-65.8,3.88,2.59ZM27.59,78.28c3.19,2,6.86,3.63,9.53,3.34C33.72,80.3,31.19,78.3,27.59,78.28ZM66.23,11.6l.81.45ZM30.37,76a5,5,0,0,0,5.92.91ZM67.15,12.48l3.79,4,.16-.27-.54-.31C70.06,14.71,68.28,12.71,67.15,12.48Zm1.36,5.07L74,25.36l0-.69C72.62,22.63,71.57,18.12,68.52,17.55ZM34.09,78.81c10.66,6.37,19,.05,25.85-4.41-5.73.36-10.65,2.25-16.07,3.61C42.05,77.27,36.48,78.13,34.09,78.81Zm2.32-1.52L37,76.9Zm35-59.84.54.31ZM33.22,84c14.21,6,25.07,2.83,35.52-5.63,2-1.63,6.47-5.87,7-9.55l-4.21,2.93L65.35,79.3c-10.24,8-19.81,4.62-32.13,4.72ZM35,82.88l.54.31Zm5.86-9.49,1.12-.07Zm1.39.08,2.23-.14ZM72.1,25c3.37,6.28,7.73,27.78,1.54,34.45,7.12-1.71,4.11-23.1,2.63-27.41ZM44.7,73.49a12.88,12.88,0,0,0,9.71-1.91ZM75.18,24.6c3.84,4.53,3.38,10.72,5.16,15.83-.08-3.6-1.14-14.55-5.17-15.83ZM47,83.74c8.92,1.56,16.36-4.51,22.11-11.56C61,73.87,54.49,81.78,47,83.74ZM79.75,27.23c2.15,4.24,1.8,8.62,3.25,12.94C83.21,38,82,26.81,79.75,27.23ZM59.33,73c2.16-.19,2.55-.7,4.44-2.09Zm8.45-4.07,5.41-4.39a15.22,15.22,0,0,0-5.41,4.39Zm1.15,1.73A7.24,7.24,0,0,0,72,68.47Zm6.3-5.3-.39,1.92.58-.38c2-.85,2.47-2.93,3.37-5.2Z"/></svg>