<svg xmlns="http://www.w3.org/2000/svg" viewBox="0 0 507.17 89.49"><defs><style>.a{fill:#599190;}.b{fill:#45506d;}</style></defs><title>logo-rgb</title><path class="a" d="M64.93,3.17C71,6.68,73.7,11.5,76.15,16c3.74,1.16,5,3.87,7.16,6.23C92.73,32.6,92.5,41.37,87.56,55.6L84,61.05l-1.93,8.86c-2.73,8.39-10.82,15-16.26,17.4-7.71,3.37-16.19,2.53-25.22-.53l-7.24-4.85C26.5,79.15,18.57,78.24,12,72.25-2.84,58.58-1,36.16,15.45,18.32c6.14-6.66,8-11.84,16.25-14.91C41.12-.1,50.87,5.44,64,9.74l9.1,4.13c-2.32-3.64-5.8-5.71-9.35-9.25Zm6.51,12.26-4.09-1.62c5.57,4,8.28,10.64,10.67,15C78.44,24.54,76.6,18.32,71.44,15.43Zm6.16,4.23c1,3.57,1,8.92,2.61,12.17,2.37,4.9,6.22,8.24,6.85,13.52q-.15,3.65-.3,7.3C91.8,39.13,89.09,29.26,77.6,19.66ZM48.35,5.08l.38.58Zm-1-.2C33.69,6.29,28.9,1.74,17.82,16.11l.27.15.31-.53c6.33-3,11.66-7.41,18.16-9.55,2.69-.89,10.82-1.29,10.82-1.29ZM59.9,12.39,55,10.31c-9.51-2-26.78,1.07-33,12.13l.27.15.31-.53L38.8,15.28c8.12-2.39,17.83,1.89,26.49,2.68l-.54-.31C64,15.17,62,13.79,59.9,12.4Zm4.83,7.74-9-3a51.51,51.51,0,0,0-27.17,4.05l-7.47,3.56c-6.67,7.59-.15,35.05,3.21,41.34l-.64-3.22.74-.65a2.62,2.62,0,0,1,1,1.3c0,10.43,20.75,12.52,27.53,10.75,5.09-1.33,14.41-2.83,18.8-6.34,13.54-10.82,1.45-40.81-7-47.78Zm7.08,5.12c-.07,2.07,1.92,5.83,3.17,7.51-.47-2.27-1.4-5.66-3.17-7.51Zm3.58,3.11A111.34,111.34,0,0,0,79,45.7,23.93,23.93,0,0,0,75.4,28.37Zm6.21,10.31L84,52.49c1.11-4.85-.36-9.74-2.37-13.81Zm-51-28.44L27.53,12.4l.69,0c1.19-.92,2.43-1.33,2.37-2.2Zm49.89,31c0,7.29-.14,15.33-3.62,22.84l.27.15c7.12-7.6,6.78-15.09,3.35-23ZM25.28,15c-5.82,6.29-9.55,4.84-12.35,15l.27.15.31-.53c2.22-1.42,3.09-5.28,5.21-7.7l6.09-6.13.43-.11.58-.38ZM85.22,52.84l-.31.53Zm-.2,1a3.46,3.46,0,0,0-.28,2.33L85,53.79Zm1,1.3.07,1.11ZM18.74,17l-.31.53Zm-.74.65-2.67,2.74.27.15,2.68-2.74Zm2.84,3.75-3.18,4.23.27.15c1-1,2.73-2.63,2.91-4.38ZM82.84,60l-2.18,3.74,2.14-3ZM13.89,21l-.51,1.49Zm4.69,5.53c-4.87,5.3-4.53,12.55-3.06,18.18l1.09-11.12ZM82.15,64.26c-3.33,5.8-7.05,7.1-10.78,9.85L65,80.77c-8.77,6.35-16.55,2-26.94,2.4,16,6.06,27.21,6.78,38-6C79.08,73.58,82.06,68.35,82.15,64.26ZM11.83,25.14c-2.24,3.12-4.39,6.64-4.22,9.69ZM78.1,64.43l-2.61,3.85Zm-66-36.65c-2,3.17-3.66,6.81-3.36,9.47C10.05,33.87,12.07,31.36,12.09,27.78ZM79.25,66.15l-.47.8ZM14.43,30.55a4.92,4.92,0,0,0-.91,5.88ZM78.35,67.07l-4,3.77.27.15.31-.53c1.17-.5,3.18-2.27,3.41-3.39Zm-5.1,1.35-7.87,5.47.7,0c2-1.43,6.6-2.47,7.17-5.51ZM11.55,34.24C5.14,44.83,11.5,53.12,16,59.91c-.36-5.69-2.26-10.58-3.64-16C13.11,42.15,12.24,36.61,11.55,34.24Zm1.53,2.3.38.58ZM73.35,71.33l-.31.53Zm-67-38C.28,47.48,3.45,58.27,12,68.65c1.64,2,5.91,6.43,9.63,6.92l-3-4.18-7.58-6.11C3,55.11,6.41,45.61,6.3,33.38ZM7.46,35.1l-.31.53ZM17,40.92,17.08,42Zm-.09,1.38.14,2.22ZM65.77,72c-6.32,3.35-28,7.67-34.7,1.53,1.72,7.07,23.27,4.08,27.61,2.61ZM16.91,44.78a12.65,12.65,0,0,0,1.93,9.64ZM66.15,75c-4.57,3.81-10.79,3.36-15.94,5.13C53.84,80.1,64.86,79,66.15,75Zm-59.56-28C5,55.92,11.14,63.31,18.24,69,16.53,61,8.56,54.5,6.59,47.06ZM63.5,79.58c-4.27,2.13-8.68,1.79-13,3.23,2.18.2,13.45-1,13-3.23ZM17.43,59.31c.19,2.14.71,2.53,2.11,4.41Zm4.09,8.39,4.42,5.37a15.15,15.15,0,0,0-4.42-5.37Zm-1.74,1.14a7.18,7.18,0,0,0,2.19,3Zm5.35,6.26-1.93-.39.38.58c.85,2,3,2.45,5.24,3.35Z"/><path class="a" d="M66.06,3.16C72.15,6.67,74.83,11.5,77.28,16c3.74,1.16,5,3.87,7.16,6.23,9.43,10.39,9.19,19.16,4.25,33.39L85.15,61l-1.93,8.86c-2.73,8.39-10.82,15-16.26,17.4-7.71,3.37-16.19,2.53-25.22-.53l-7.24-4.85c-6.86-2.79-14.79-3.69-21.32-9.69C-1.71,58.57.15,36.14,16.58,18.3c6.14-6.66,8-11.84,16.25-14.91C42.25-.12,52,5.42,65.1,9.73l9.1,4.13c-2.32-3.64-5.8-5.71-9.35-9.25Zm6.51,12.26L68.48,13.8c5.57,4,8.28,10.64,10.67,15,.42-4.26-1.43-10.48-6.58-13.37Zm6.16,4.23c1,3.57,1,8.92,2.62,12.17,2.37,4.9,6.22,8.24,6.85,13.52l-.3,7.3c5-13.53,2.32-23.39-9.17-33ZM49.47,5.07l.38.58Zm-1-.19C34.82,6.28,30,1.74,18.95,16.11l.27.15.31-.53c6.33-3,11.66-7.41,18.16-9.55C40.38,5.28,48.51,4.88,48.51,4.88ZM61,12.39,56.14,10.3c-9.51-2-26.78,1.07-33,12.13l.27.15.31-.53,16.18-6.77c8.12-2.39,17.83,1.89,26.49,2.68l-.54-.31C65.1,15.16,63.13,13.78,61,12.39Zm4.83,7.74-9-3a51.51,51.51,0,0,0-27.18,4l-7.47,3.56C15.52,32.3,22,59.77,25.4,66.06l-.64-3.21.74-.65a2.62,2.62,0,0,1,1,1.3c0,10.43,20.75,12.52,27.53,10.75,5.09-1.33,14.41-2.83,18.8-6.34,13.54-10.82,1.45-40.81-7-47.78ZM73,25.25c-.07,2.07,1.92,5.83,3.17,7.51-.47-2.28-1.4-5.67-3.17-7.52Zm3.58,3.11A111.35,111.35,0,0,0,80.08,45.7a23.93,23.93,0,0,0-3.55-17.34Zm6.21,10.31,2.37,13.81c1.11-4.86-.36-9.75-2.37-13.81Zm-51-28.44L28.66,12.4l.69,0c1.18-.93,2.43-1.34,2.37-2.21Zm49.89,31c0,7.29-.14,15.33-3.62,22.84l.27.15c7.11-7.6,6.78-15.09,3.35-23ZM26.41,15c-5.82,6.29-9.55,4.84-12.35,15l.27.15.31-.53c2.22-1.42,3.09-5.28,5.21-7.7l6.09-6.13.43-.11.58-.38Zm59.94,37.8-.31.53Zm-.2,1a3.46,3.46,0,0,0-.28,2.33l.28-2.33Zm1,1.3.07,1.11ZM19.87,17l-.31.53Zm-.74.65-2.68,2.74.27.15,2.68-2.74ZM22,21.39l-3.18,4.23.27.15c1-1,2.73-2.63,2.91-4.38ZM84,60l-2.18,3.74,2.14-3q0-.34,0-.68ZM15,21l-.51,1.49Zm4.69,5.53c-4.87,5.3-4.53,12.55-3.06,18.19l1.09-11.12ZM83.28,64.25c-3.33,5.8-7.05,7.1-10.78,9.85l-6.4,6.66c-8.77,6.35-16.55,2-26.94,2.41,16,6.06,27.21,6.78,38-6,3-3.56,6-8.8,6.09-12.89ZM13,25.14c-2.24,3.12-4.39,6.64-4.22,9.69ZM79.22,64.42l-2.61,3.85Zm-66-36.65c-2,3.17-3.66,6.81-3.36,9.47C11.18,33.87,13.2,31.35,13.21,27.78ZM80.38,66.15l-.47.8ZM15.56,30.54a4.92,4.92,0,0,0-.91,5.88ZM79.48,67.06l-4,3.77.27.15.31-.53c1.17-.5,3.18-2.27,3.42-3.39Zm-5.1,1.35-7.87,5.47.69,0c2.05-1.43,6.6-2.47,7.17-5.51ZM12.68,34.23c-6.41,10.58-.05,18.88,4.44,25.67-.36-5.69-2.26-10.58-3.64-16C14.23,42.14,13.37,36.6,12.68,34.23Zm1.54,2.3.38.58ZM74.48,71.32l-.31.53.31-.53Zm-67-37.95c-6,14.1-2.85,24.89,5.67,35.27,1.64,2,5.91,6.43,9.63,6.92l-3-4.18-7.58-6.11C4.11,55.1,7.54,45.6,7.43,33.37Zm1.15,1.73-.31.53Zm9.55,5.81L18.21,42Zm-.08,1.38.14,2.22ZM66.91,72c-6.32,3.35-28,7.67-34.7,1.53,1.72,7.07,23.27,4.08,27.61,2.61ZM18,44.77A12.65,12.65,0,0,0,20,54.41ZM67.27,75c-4.57,3.81-10.79,3.36-15.94,5.13C55,80.09,66,79,67.28,75Zm-59.56-28C6.15,55.91,12.26,63.3,19.36,69c-1.7-8-9.67-14.52-11.64-21.95ZM64.63,79.57c-4.27,2.13-8.68,1.79-13,3.23,2.19.2,13.46-1,13-3.23ZM18.56,59.3c.19,2.14.71,2.53,2.11,4.41Zm4.09,8.39,4.42,5.37a15.16,15.16,0,0,0-4.42-5.37Zm-1.74,1.14a7.18,7.18,0,0,0,2.19,3Zm5.35,6.26-1.93-.39.38.58c.85,2,3,2.45,5.24,3.35Z"/><path class="a" d="M2.8,25.82c3.53-6.05,8.4-8.71,12.91-11.15,1.17-3.71,3.9-5,6.27-7.11C32.44-1.79,41.27-1.56,55.6,3.34l5.49,3.51L70,8.78c8.45,2.71,15.13,10.74,17.52,16.15C90.93,32.58,90.09,41,87,50l-4.88,7.19C79.31,64,78.4,71.85,72.36,78.33,58.6,93.11,36,91.26,18.05,74.94,11.34,68.85,6.13,67,3,58.8c-3.54-9.35,2-19,6.38-32l4.16-9C9.91,20,7.83,23.49,4.25,27Zm12.35-6.47-1.64,4.06c4.07-5.53,10.72-8.22,15.1-10.6-4.29-.42-10.55,1.41-13.47,6.53Zm4.26-6.12c3.6-1,9-1,12.25-2.59C36.6,8.29,40,4.46,45.28,3.84l7.35.3C39-.86,29.08,1.82,19.41,13.23Zm-14.68,29,.58-.38Zm-.2,1c1.41,13.59-3.17,18.35,11.3,29.36l.15-.27L15.45,72C12.38,65.73,8,60.44,5.83,54,4.94,51.31,4.53,43.23,4.53,43.23ZM12.09,30.8,10,35.66c-2,9.44,1.08,26.59,12.21,32.74l.15-.27-.54-.31L15,51.76c-2.41-8.06,1.9-17.7,2.7-26.3l-.31.54c-2.5.77-3.89,2.72-5.29,4.81Zm7.8-4.8-3,9a50.5,50.5,0,0,0,4.08,27l3.59,7.42c7.64,6.63,35.3.15,41.63-3.19l-3.24.64-.65-.73a2.63,2.63,0,0,1,1.31-1c10.5,0,12.61-20.61,10.83-27.34C73,32.66,71.54,23.41,68,19,57.11,5.6,26.9,17.61,19.89,26ZM25,19c2.08.07,5.87-1.9,7.56-3.15C30.31,16.28,26.9,17.21,25,19Zm3.13-3.55a113.44,113.44,0,0,0,17.46-3.53A24.38,24.38,0,0,0,28.18,15.42ZM38.56,9.25,52.47,6.89c-4.89-1.1-9.82.36-13.91,2.36ZM9.92,59.91l2.18,3,0-.69C11.21,61.08,10.79,59.84,9.92,59.91ZM41.13,10.37c7.34,0,15.44.14,23,3.59l.15-.27C56.64,6.63,49.11,7,41.13,10.37ZM14.75,65.18c6.34,5.78,4.87,9.48,15.11,12.26l.15-.27-.54-.31C28,74.66,24.16,73.8,21.72,71.7l-6.17-6-.11-.42-.38-.58ZM52.82,5.67l.54.31Zm1,.2a3.54,3.54,0,0,0,2.35.28Zm1.31-1,1.12-.07ZM16.72,71.67l.54.31Zm.65.73,2.76,2.66.15-.27-2.76-2.66Zm3.79-2.82,4.26,3.16.15-.27C24.57,71.45,22.92,69.77,21.16,69.58ZM60,8l3.76,2.16L60.74,8.08ZM20.74,76.49l1.5.51Zm5.57-4.66c5.34,4.83,12.64,4.5,18.31,3l-11.2-1.09Zm38-63.13c5.85,3.31,7.15,7,9.92,10.71L81,25.77c6.4,8.71,2,16.43,2.42,26.75,6.11-15.89,6.82-27-6.07-37.77-3.6-3-8.87-5.94-13-6ZM24.93,78.54c3.14,2.23,6.69,4.36,9.76,4.19Zm39.56-65.8,3.88,2.59ZM27.59,78.28c3.19,2,6.86,3.63,9.53,3.34C33.72,80.3,31.19,78.3,27.59,78.28ZM66.23,11.6l.81.45ZM30.37,76a5,5,0,0,0,5.92.91ZM67.15,12.48l3.79,4,.16-.27-.54-.31C70.06,14.71,68.28,12.71,67.15,12.48Zm1.36,5.07L74,25.36l0-.69C72.62,22.63,71.57,18.12,68.52,17.55ZM34.09,78.81c10.66,6.37,19,.05,25.85-4.41-5.73.36-10.65,2.25-16.07,3.61C42.05,77.27,36.48,78.13,34.09,78.81Zm2.32-1.52L37,76.9Zm35-59.84.54.31ZM33.22,84c14.21,6,25.07,2.83,35.52-5.63,2-1.63,6.47-5.87,7-9.55l-4.21,2.93L65.35,79.3c-10.24,8-19.81,4.62-32.13,4.72ZM35,82.88l.54.31Zm5.86-9.49,1.12-.07Zm1.39.08,2.23-.14ZM72.1,25c3.37,6.28,7.73,27.78,1.54,34.45,7.12-1.71,4.11-23.1,2.63-27.41ZM44.7,73.49a12.88,12.88,0,0,0,9.71-1.91ZM75.18,24.6c3.84,4.53,3.38,10.72,5.16,15.83-.08-3.6-1.14-14.55-5.17-15.83ZM47,83.74c8.92,1.56,16.36-4.51,22.11-11.56C61,73.87,54.49,81.78,47,83.74ZM79.75,27.23c2.15,4.24,1.8,8.62,3.25,12.94C83.21,38,82,26.81,79.75,27.23ZM59.33,73c2.16-.19,2.55-.7,4.44-2.09Zm8.45-4.07,5.41-4.39a15.22,15.22,0,0,0-5.41,4.39Zm1.15,1.73A7.24,7.24,0,0,0,72,68.47Zm6.3-5.3-.39,1.92.58-.38c2-.85,2.47-2.93,3.37-5.2Z"/><path class="a" d="M417.4,15.4c3,1.74,4.35,4.13,5.57,6.36,1.85.58,2.49,1.92,3.55,3.09,4.67,5.15,4.56,9.5,2.11,16.56l-1.76,2.7-1,4.39c-1.35,4.16-5.36,7.45-8.07,8.63-3.82,1.67-8,1.26-12.51-.26l-3.59-2.4c-3.4-1.38-7.33-1.83-10.57-4.81-7.38-6.78-6.46-17.9,1.69-26.74,3-3.3,4-5.87,8.06-7.4,4.67-1.74,9.51,1,16,3.14l4.51,2c-1.15-1.8-2.88-2.83-4.63-4.59Zm3.23,6.08-2-.8c2.76,2,4.1,5.28,5.29,7.44A7,7,0,0,0,420.63,21.48Zm3.06,2.1c.52,1.77.51,4.42,1.29,6,1.18,2.43,3.09,4.09,3.4,6.71l-.15,3.62C430.72,33.24,429.39,28.34,423.69,23.58Zm-14.51-7.23.19.29Zm-.48-.1c-6.79.69-9.17-1.56-14.66,5.57l.13.08.15-.26c3.14-1.51,5.78-3.68,9-4.74a33.7,33.7,0,0,1,5.37-.64ZM414.91,20l-2.43-1c-4.72-1-13.28.53-16.35,6l.13.08.15-.26,8-3.36c4-1.18,8.84.94,13.14,1.33l-.27-.15A5.1,5.1,0,0,0,414.91,20Zm2.4,3.84-4.48-1.5a25.54,25.54,0,0,0-13.48,2l-3.71,1.77c-3.31,3.76-.08,17.38,1.59,20.5l-.32-1.6.37-.32a1.3,1.3,0,0,1,.51.65c0,5.17,10.29,6.21,13.65,5.33,2.53-.66,7.15-1.4,9.32-3.14,6.71-5.36.72-20.24-3.48-23.69Zm3.51,2.54a8.12,8.12,0,0,0,1.57,3.72,8.15,8.15,0,0,0-1.57-3.72Zm1.77,1.54a55.22,55.22,0,0,0,1.76,8.6,11.87,11.87,0,0,0-1.76-8.59ZM425.67,33l1.18,6.85A10.41,10.41,0,0,0,425.67,33Zm-25.3-14.1L398.86,20l.34,0c.59-.46,1.21-.66,1.17-1.09Zm24.74,15.37c0,3.61-.07,7.6-1.79,11.33l.13.08c3.53-3.77,3.36-7.48,1.66-11.41Zm-27.38-13c-2.89,3.12-4.74,2.4-6.13,7.44l.13.08.15-.26c1.1-.71,1.53-2.62,2.58-3.82l3-3,.21-.06.29-.19ZM427.46,40l-.15.26Zm-.1.47a1.71,1.71,0,0,0-.14,1.16l.14-1.16Zm.51.65,0,.55ZM394.5,22.26l-.15.26Zm-.37.32-1.33,1.36.13.08,1.33-1.36Zm1.41,1.86L394,26.54l.13.08a4.15,4.15,0,0,0,1.44-2.17Zm30.74,19.15-1.08,1.85,1.06-1.51ZM392.09,24.24l-.25.74ZM394.42,27c-2.41,2.63-2.25,6.22-1.52,9l.54-5.51ZM425.94,45.7c-1.65,2.88-3.5,3.52-5.35,4.89l-3.18,3.3c-4.35,3.15-8.21,1-13.36,1.19,7.94,3,13.49,3.36,18.86-3C424.42,50.32,425.9,47.73,425.94,45.7ZM391.07,26.3c-1.11,1.55-2.18,3.29-2.09,4.81Zm32.86,19.48-1.29,1.91ZM391.2,27.61c-1,1.57-1.81,3.38-1.67,4.69C390.19,30.63,391.19,29.38,391.2,27.61Zm33.31,19-.23.39ZM392.36,29a2.44,2.44,0,0,0-.45,2.92Zm31.7,18.11-2,1.87.13.08.15-.26a3.57,3.57,0,0,0,1.69-1.68Zm-2.53.67-3.9,2.71.35,0c1-.71,3.27-1.23,3.56-2.73ZM390.93,30.81c-3.18,5.25,0,9.36,2.2,12.73-.18-2.82-1.12-5.25-1.8-7.91C391.7,34.73,391.27,32,390.93,30.81Zm.76,1.14.19.29Zm29.88,17.25-.15.26ZM388.33,30.39c-3,7-1.41,12.34,2.81,17.49.82,1,2.93,3.19,4.77,3.43l-1.47-2.07-3.76-3C386.68,41.16,388.38,36.45,388.33,30.39Zm.57.86-.15.26Zm4.74,2.88,0,.55Zm0,.68.07,1.1Zm24.23,14.72c-3.14,1.66-13.88,3.81-17.21.76.85,3.5,11.54,2,13.69,1.29ZM393.59,36a6.27,6.27,0,0,0,1,4.78ZM418,51c-2.27,1.89-5.35,1.67-7.9,2.54C411.9,53.55,417.37,53,418,51ZM388.47,37.17c-.78,4.39,2.26,8.06,5.77,10.89-.85-4-4.8-7.2-5.77-10.88ZM416.69,53.3c-2.12,1.06-4.31.89-6.46,1.6,1.08.1,6.67-.48,6.46-1.6ZM393.85,43.24c.09,1.06.35,1.26,1,2.18Zm2,4.16,2.19,2.66a7.52,7.52,0,0,0-2.19-2.66ZM395,48a3.56,3.56,0,0,0,1.09,1.5Zm2.65,3.1-1-.19.19.29c.42,1,1.47,1.22,2.6,1.66Z"/><path class="a" d="M418,15.4c3,1.74,4.35,4.13,5.57,6.36,1.85.58,2.49,1.92,3.55,3.09,4.67,5.15,4.56,9.5,2.11,16.56l-1.76,2.7-1,4.39c-1.35,4.16-5.36,7.45-8.07,8.63-3.82,1.67-8,1.26-12.51-.26l-3.59-2.4c-3.4-1.38-7.33-1.83-10.57-4.81-7.38-6.78-6.45-17.9,1.69-26.75,3-3.3,4-5.87,8.06-7.4,4.67-1.74,9.51,1,16,3.14l4.51,2c-1.15-1.8-2.88-2.83-4.63-4.59Zm3.23,6.08-2-.81c2.76,2,4.1,5.28,5.29,7.44a7,7,0,0,0-3.27-6.63Zm3.06,2.1c.52,1.77.51,4.42,1.3,6,1.18,2.43,3.09,4.09,3.4,6.71l-.15,3.62c2.49-6.71,1.15-11.6-4.55-16.36Zm-14.51-7.23.19.29Zm-.48-.09c-6.79.69-9.17-1.56-14.66,5.57l.13.07.15-.26c3.14-1.51,5.78-3.68,9-4.74A33.64,33.64,0,0,1,409.26,16.25ZM415.47,20l-2.43-1c-4.72-1-13.28.53-16.35,6l.13.08.15-.26,8-3.36c4-1.18,8.84.94,13.14,1.33l-.27-.15A5.1,5.1,0,0,0,415.47,20Zm2.4,3.84-4.48-1.5a25.55,25.55,0,0,0-13.48,2l-3.71,1.77c-3.31,3.76-.08,17.38,1.59,20.5L397.48,45l.37-.32a1.3,1.3,0,0,1,.51.65c0,5.17,10.29,6.21,13.65,5.33,2.53-.66,7.15-1.4,9.32-3.14,6.71-5.37.72-20.24-3.48-23.69Zm3.51,2.54A8.12,8.12,0,0,0,423,30.08a8.17,8.17,0,0,0-1.57-3.73Zm1.77,1.54a55.22,55.22,0,0,0,1.76,8.6,11.87,11.87,0,0,0-1.76-8.6ZM426.23,33l1.18,6.85A10.42,10.42,0,0,0,426.23,33Zm-25.3-14.1L399.42,20l.34,0c.59-.46,1.2-.66,1.17-1.1Zm24.74,15.37c0,3.61-.07,7.6-1.79,11.33l.13.08c3.53-3.77,3.36-7.48,1.66-11.41Zm-27.38-13c-2.89,3.12-4.74,2.4-6.13,7.44l.13.08.15-.26c1.1-.71,1.53-2.62,2.58-3.82l3-3,.21-.06.29-.19ZM428,40l-.15.26Zm-.1.47a1.71,1.71,0,0,0-.14,1.16l.14-1.15Zm.51.65,0,.55Zm-33.38-18.9-.15.26Zm-.37.32-1.33,1.36.13.08,1.33-1.36Zm1.41,1.86-1.58,2.1.13.08a4.15,4.15,0,0,0,1.44-2.17Zm30.74,19.15-1.08,1.85,1.06-1.51q0-.17,0-.34ZM392.65,24.24l-.25.74ZM395,27c-2.41,2.63-2.25,6.22-1.52,9l.54-5.51ZM426.5,45.69c-1.65,2.88-3.5,3.52-5.35,4.89L418,53.88c-4.35,3.15-8.21,1-13.36,1.19,7.94,3,13.49,3.36,18.86-3,1.5-1.77,3-4.36,3-6.39ZM391.63,26.3c-1.11,1.55-2.18,3.29-2.09,4.81Zm32.86,19.48-1.29,1.91ZM391.76,27.61c-1,1.57-1.81,3.38-1.67,4.69C390.75,30.63,391.75,29.38,391.76,27.61Zm33.31,19-.23.39ZM392.92,29a2.44,2.44,0,0,0-.45,2.92Zm31.7,18.11-2,1.87.13.08.15-.26a3.56,3.56,0,0,0,1.69-1.68Zm-2.53.67-3.9,2.71.34,0c1-.71,3.27-1.23,3.56-2.73Zm-30.59-17c-3.18,5.25,0,9.36,2.2,12.73-.18-2.82-1.12-5.25-1.8-7.91C392.26,34.73,391.83,32,391.49,30.81Zm.76,1.14.19.29ZM422.14,49.2l-.15.26.15-.26ZM388.89,30.38c-3,7-1.41,12.34,2.81,17.49.82,1,2.93,3.19,4.77,3.43L395,49.23l-3.76-3C387.24,41.16,388.94,36.45,388.89,30.38Zm.57.86-.15.26Zm4.74,2.88,0,.55Zm0,.68.07,1.1Zm24.22,14.72c-3.13,1.66-13.88,3.81-17.21.76.85,3.5,11.54,2,13.69,1.29ZM394.15,36a6.27,6.27,0,0,0,1,4.78Zm24.42,15c-2.27,1.89-5.35,1.67-7.9,2.54,1.8,0,7.27-.56,7.91-2.54ZM389,37.17c-.78,4.39,2.26,8.06,5.77,10.89-.84-4-4.8-7.2-5.77-10.88Zm28.22,16.12c-2.12,1.06-4.3.89-6.46,1.6,1.08.1,6.67-.48,6.47-1.6ZM394.41,43.24c.09,1.06.35,1.26,1,2.18Zm2,4.16,2.19,2.66a7.52,7.52,0,0,0-2.19-2.66Zm-.86.56a3.56,3.56,0,0,0,1.09,1.5Zm2.65,3.1-1-.19.19.29c.42,1,1.47,1.22,2.6,1.66Z"/><path class="a" d="M386.59,26.64c1.75-3,4.16-4.32,6.4-5.53.58-1.84,1.93-2.47,3.11-3.52,5.19-4.64,9.57-4.52,16.68-2.09l2.72,1.74,4.42,1c4.19,1.34,7.5,5.33,8.69,8,1.68,3.8,1.27,8-.27,12.42l-2.42,3.57c-1.39,3.38-1.85,7.28-4.84,10.5-6.82,7.33-18,6.41-26.93-1.68-3.33-3-5.91-3.94-7.45-8-1.75-4.64,1-9.44,3.16-15.89l2.06-4.48c-1.82,1.14-2.85,2.86-4.62,4.6Zm6.12-3.21-.81,2c2-2.74,5.32-4.08,7.49-5.25a7.13,7.13,0,0,0-6.68,3.24Zm2.11-3c1.78-.51,4.46-.51,6.08-1.29,2.45-1.17,4.12-3.06,6.75-3.38l3.65.15c-6.75-2.48-11.68-1.15-16.48,4.51Zm-7.28,14.4.29-.19Zm-.1.47c.7,6.74-1.57,9.1,5.61,14.56l.08-.13-.27-.15c-1.52-3.12-3.7-5.74-4.77-8.94A33.32,33.32,0,0,1,387.45,35.27Zm3.75-6.17-1,2.41c-1,4.68.53,13.19,6.06,16.23l.08-.13-.27-.15-3.38-8c-1.19-4,.94-8.78,1.34-13l-.15.27a5.09,5.09,0,0,0-2.62,2.39Zm3.87-2.38-1.51,4.44a25,25,0,0,0,2,13.38l1.78,3.68c3.79,3.29,17.51.08,20.64-1.58L416.4,47l-.32-.36a1.3,1.3,0,0,1,.65-.51c5.21,0,6.26-10.22,5.37-13.56-.67-2.51-1.41-7.1-3.17-9.26-5.4-6.67-20.38-.71-23.86,3.45Zm2.56-3.49a8.23,8.23,0,0,0,3.75-1.56A8.28,8.28,0,0,0,397.62,23.24Zm1.55-1.76a56.25,56.25,0,0,0,8.66-1.75A12.09,12.09,0,0,0,399.18,21.48Zm5.15-3.06,6.9-1.17a10.62,10.62,0,0,0-6.9,1.17Zm-14.2,25.12L391.2,45l0-.34C390.76,44.12,390.56,43.51,390.12,43.54ZM405.6,19c3.64,0,7.66.07,11.41,1.78l.08-.13C413.29,17.12,409.55,17.29,405.6,19ZM392.52,46.16c3.14,2.87,2.42,4.7,7.5,6.08l.08-.13-.27-.15c-.71-1.09-2.64-1.52-3.85-2.57l-3.06-3-.06-.21-.19-.29ZM411.4,16.64l.27.15Zm.48.1a1.75,1.75,0,0,0,1.16.14Zm.65-.51.55,0Zm-19,33.15.27.15Zm.32.36,1.37,1.32.08-.13-1.37-1.32Zm1.88-1.4,2.11,1.57.08-.13A4.2,4.2,0,0,0,395.69,48.34ZM415,17.82l1.87,1.07-1.52-1.05ZM395.49,51.76l.74.25Zm2.76-2.31c2.65,2.4,6.27,2.23,9.08,1.5l-5.55-.54Zm18.85-31.3c2.9,1.64,3.55,3.47,4.92,5.31l3.33,3.15c3.17,4.32,1,8.15,1.2,13.26,3-7.88,3.38-13.4-3-18.73-1.78-1.48-4.4-2.95-6.44-3ZM397.57,52.78c1.56,1.1,3.32,2.16,4.84,2.08Zm19.62-32.63,1.92,1.28Zm-18.3,32.5c1.58,1,3.4,1.8,4.73,1.66C401.92,53.65,400.67,52.66,398.88,52.65ZM418,19.59l.4.23ZM400.26,51.5a2.48,2.48,0,0,0,2.94.45ZM418.5,20l1.88,2,.08-.13-.27-.15A3.57,3.57,0,0,0,418.5,20Zm.68,2.51,2.73,3.87,0-.34C421.22,25.06,420.7,22.82,419.18,22.54ZM402.11,52.91c5.29,3.16,9.43,0,12.82-2.19-2.84.18-5.28,1.11-8,1.79C406.06,52.15,403.29,52.58,402.11,52.91Zm1.15-.76.29-.19Zm17.37-29.67.27.15Zm-19,33c7,3,12.43,1.4,17.62-2.79,1-.81,3.21-2.91,3.46-4.74l-2.09,1.46-3.05,3.73c-5.08,4-9.82,2.29-15.94,2.34Zm.86-.56.27.15Zm2.9-4.7.55,0Zm.69,0,1.11-.07ZM421,26.22c1.67,3.11,3.83,13.78.76,17.08,3.53-.85,2-11.46,1.3-13.59ZM407.37,50.28a6.39,6.39,0,0,0,4.82-.95ZM422.49,26c1.9,2.25,1.68,5.31,2.56,7.85,0-1.79-.57-7.21-2.56-7.85Zm-14,29.33c4.42.77,8.11-2.24,11-5.73-4,.84-7.26,4.76-11,5.73Zm16.24-28c1.07,2.1.89,4.27,1.61,6.42C426.47,32.68,425.88,27.13,424.75,27.34ZM414.63,50c1.07-.09,1.26-.35,2.2-1Zm4.19-2,2.68-2.18A7.55,7.55,0,0,0,418.82,48Zm.57.86a3.59,3.59,0,0,0,1.51-1.08Zm3.12-2.63-.2,1,.29-.19c1-.42,1.23-1.45,1.67-2.58Z"/><path class="a" d="M153.33,54.57a17.63,17.63,0,0,1-12.94-5.27A18,18,0,0,1,135.1,36a17.94,17.94,0,0,1,5.29-13.31,18.58,18.58,0,0,1,25.88,0A18,18,0,0,1,171.51,36a19.26,19.26,0,0,1-1.8,8.34,17.77,17.77,0,0,1-4.94,6.33L172,60.16H161.53l-4.3-6A19.55,19.55,0,0,1,153.33,54.57Zm-6.86-26.2a10.93,10.93,0,0,0-2.56,7.6,10.92,10.92,0,0,0,2.56,7.6,9.64,9.64,0,0,0,13.67,0A10.93,10.93,0,0,0,162.7,36a10.93,10.93,0,0,0-2.56-7.6,9.64,9.64,0,0,0-13.67,0Z"/><path class="a" d="M184,39.59V17.94h8.66V39.59a7.27,7.27,0,0,0,1.57,5,5.86,5.86,0,0,0,4.61,1.76,6,6,0,0,0,4.66-1.76,7.13,7.13,0,0,0,1.62-5V17.94h8.66V39.59a15.21,15.21,0,0,1-2.2,8.29A13.33,13.33,0,0,1,206,53a16.81,16.81,0,0,1-7.32,1.6,14.81,14.81,0,0,1-10.43-3.93Q184,46.72,184,39.59Z"/><path class="a" d="M250.46,54.21l-8-25.51h0l-8.68,25.51h-9.22l12.36-36.38h10.53l12.3,36.38Z"/><path class="a" d="M292.65,17.84h8.66V54.21h-8.66L278.17,31.32V54.21h-8.66V17.84h8.66l14.48,22.89Z"/><path class="a" d="M315.36,54.21V17.94H324V54.21Z"/><path class="a" d="M378.1,17.94V54.21h-8.66V33.75l-8.25,20.46h-6.43L346.5,33.75V54.21h-8.66V17.94h9.93l10.23,25,10.18-25Z"/><path class="a" d="M437.65,39.59V17.94h8.66V39.59a7.27,7.27,0,0,0,1.57,5,5.86,5.86,0,0,0,4.61,1.76,6,6,0,0,0,4.66-1.76,7.13,7.13,0,0,0,1.62-5V17.94h8.66V39.59a15.21,15.21,0,0,1-2.2,8.29A13.33,13.33,0,0,1,459.66,53a16.81,16.81,0,0,1-7.32,1.6,14.81,14.81,0,0,1-10.43-3.93Q437.65,46.72,437.65,39.59Z"/><path class="a" d="M493.29,24.4a4,4,0,0,0-2.66.88,3.13,3.13,0,0,0-1,2.53,3.69,3.69,0,0,0,1,2.66A6.25,6.25,0,0,0,493.06,32q1.54.54,3.44,1a38.24,38.24,0,0,1,3.77,1.19A16.42,16.42,0,0,1,503.7,36a7.54,7.54,0,0,1,2.51,2.92,9.85,9.85,0,0,1,1,4.52,10.21,10.21,0,0,1-3.67,7.88,14,14,0,0,1-9.67,3.28q-6,0-9.67-2.95a10.11,10.11,0,0,1-3.67-8.37h9.22q.35,4.34,4.35,4.34a4.1,4.1,0,0,0,2.94-1A3.37,3.37,0,0,0,498.05,44a3.47,3.47,0,0,0-1-2.53A6.7,6.7,0,0,0,494.58,40q-1.54-.57-3.44-1.06a34.19,34.19,0,0,1-3.77-1.21,18.3,18.3,0,0,1-3.42-1.73,7.33,7.33,0,0,1-2.51-2.89,9.72,9.72,0,0,1-1-4.47,10,10,0,0,1,3.7-8.11,14.35,14.35,0,0,1,9.44-3,15.09,15.09,0,0,1,9.29,2.66q3.54,2.66,3.7,8.4h-9.42a4.9,4.9,0,0,0-1.24-3A3.56,3.56,0,0,0,493.29,24.4Z"/><path class="a" d="M124.32,18.1v6.67h-13v7.75h11.49v6.67H111.3v8.36h13v6.67h-21.8V18.1Z"/><path class="b" d="M102.24,69.71V68h8.89v1.68h-3.39V81.17h-2.09V69.71Z"/><path class="b" d="M123.26,75.84v5.33h-2.09V68h4.4a4.68,4.68,0,0,1,3.34,1.11,3.69,3.69,0,0,1,1.17,2.81,3.92,3.92,0,0,1-.78,2.38,3.74,3.74,0,0,1-2.39,1.38l3.37,5.46h-2.55l-3.19-5.33Zm0-6.12v4.44h2.31a2.42,2.42,0,0,0,1.78-.59,2.57,2.57,0,0,0,0-3.27,2.43,2.43,0,0,0-1.78-.59Z"/><path class="b" d="M149.28,81.17l-.92-2.68H143l-.92,2.68h-2.18L144.49,68h2.42l4.57,13.15Zm-5.69-4.37h4.2l-2.09-6.18Z"/><path class="b" d="M161.38,81.17V68h2.09V81.17Z"/><path class="b" d="M182.53,68h2.09V81.17h-2.09l-6.29-9.81v9.81h-2.09V68h2.09l6.29,9.79Z"/><path class="b" d="M195.29,81.17V68h2.09V81.17Z"/><path class="b" d="M216.44,68h2.09V81.17h-2.09l-6.29-9.81v9.81h-2.09V68h2.09l6.29,9.79Z"/><path class="b" d="M234.89,81.28a6.15,6.15,0,0,1-4.5-1.89,7.08,7.08,0,0,1,0-9.63,6.27,6.27,0,0,1,4.62-1.9,6.5,6.5,0,0,1,3.62,1,5.83,5.83,0,0,1,2.3,2.92h-2.51a3.55,3.55,0,0,0-3.41-2,4.11,4.11,0,0,0-3.15,1.3,5.49,5.49,0,0,0,0,6.9,4,4,0,0,0,3,1.3,4.09,4.09,0,0,0,2.89-1,4.28,4.28,0,0,0,1.29-2.69H234.3V74h7v1.68a6.37,6.37,0,0,1-2.05,4A6.18,6.18,0,0,1,234.89,81.28Z"/><path class="b" d="M273.32,81.17l-.92-2.68h-5.34l-.92,2.68H264L268.54,68H271l4.57,13.15Zm-5.69-4.37h4.2l-2.09-6.18Z"/><path class="b" d="M293.81,68h2.09V81.17h-2.09l-6.29-9.81v9.81h-2.09V68h2.09l6.29,9.79Z"/><path class="b" d="M310.74,68a6.78,6.78,0,0,1,4.92,1.79,6.4,6.4,0,0,1,1.84,4.82,6.28,6.28,0,0,1-1.84,4.78,6.86,6.86,0,0,1-4.92,1.75h-4.16V68Zm-2.07,11.49h2.07a4.42,4.42,0,0,0,3.42-1.3,5.93,5.93,0,0,0,0-7.15,4.44,4.44,0,0,0-3.42-1.29h-2.07Z"/><path class="b" d="M348,68v1.68h-5v4h4.4v1.66H343v4.14h5v1.68h-7V68Z"/><path class="b" d="M362.61,68a6.78,6.78,0,0,1,4.92,1.79,6.4,6.4,0,0,1,1.84,4.82,6.28,6.28,0,0,1-1.84,4.78,6.86,6.86,0,0,1-4.92,1.75h-4.16V68Zm-2.07,11.49h2.07a4.42,4.42,0,0,0,3.42-1.3,5.93,5.93,0,0,0,0-7.15,4.44,4.44,0,0,0-3.42-1.29h-2.07Z"/><path class="b" d="M379.36,76.37V68h2.09v8.33a3,3,0,0,0,.76,2.25,3.37,3.37,0,0,0,4.25,0,3,3,0,0,0,.76-2.25V68h2.09v8.33A4.63,4.63,0,0,1,387.88,80a5.2,5.2,0,0,1-3.58,1.28A5.09,5.09,0,0,1,380.76,80,4.69,4.69,0,0,1,379.36,76.37Z"/><path class="b" d="M401.15,79.39a7.08,7.08,0,0,1,0-9.63,6.27,6.27,0,0,1,4.62-1.9,6.5,6.5,0,0,1,3.62,1,5.83,5.83,0,0,1,2.3,2.92h-2.51a3.55,3.55,0,0,0-3.41-2,4.11,4.11,0,0,0-3.14,1.3,5.49,5.49,0,0,0,0,6.9,4.11,4.11,0,0,0,3.14,1.3,3.55,3.55,0,0,0,3.41-2h2.51a5.78,5.78,0,0,1-2.3,2.91,6.54,6.54,0,0,1-3.62,1A6.28,6.28,0,0,1,401.15,79.39Z"/><path class="b" d="M430.65,81.17l-.92-2.68H424.4l-.92,2.68H421.3L425.87,68h2.42l4.57,13.15ZM425,76.8h4.2l-2.09-6.18Z"/><path class="b" d="M442.1,69.71V68H451v1.68H447.6V81.17h-2.09V69.71Z"/><path class="b" d="M461,81.17V68h2.09V81.17Z"/><path class="b" d="M479.61,81.3A6.28,6.28,0,0,1,475,79.4a7.09,7.09,0,0,1,0-9.64,6.58,6.58,0,0,1,9.25,0,7.12,7.12,0,0,1,0,9.64A6.25,6.25,0,0,1,479.61,81.3Zm0-1.95A4.1,4.1,0,0,0,482.74,78a5.5,5.5,0,0,0,0-6.91,4.45,4.45,0,0,0-6.29,0,5.5,5.5,0,0,0,0,6.91A4.1,4.1,0,0,0,479.6,79.35Z"/><path class="b" d="M504.47,68h2.09V81.17h-2.09l-6.29-9.81v9.81h-2.09V68h2.09l6.29,9.79Z"/></svg>